<svg width="100" height="100" viewBox="0 0 100 100" fill="none" xmlns="http://www.w3.org/2000/svg">
<path d="M50 92.9688C73.731 92.9688 92.9688 73.731 92.9688 50C92.9688 26.269 73.731 7.03125 50 7.03125C26.269 7.03125 7.03125 26.269 7.03125 50C7.03125 73.731 26.269 92.9688 50 92.9688Z" fill="#F6CA47"/>
<path d="M60.1567 81.25C59.313 81.25 58.4927 80.7891 58.0786 79.9922C56.4692 76.9141 53.3755 75 50.0005 75C46.6255 75 43.5317 76.9141 41.9223 79.9922C41.3208 81.1406 39.9067 81.5859 38.7583 80.9844C37.6098 80.3828 37.1645 78.9688 37.7661 77.8203C40.188 73.1875 44.8755 70.3125 50.0005 70.3125C55.1255 70.3125 59.813 73.1875 62.2348 77.8203C62.8364 78.9688 62.3911 80.3828 61.2427 80.9844C60.8989 81.1641 60.5239 81.25 60.1567 81.25Z" fill="#464C54"/>
<path d="M19.5006 43.328C19.149 43.328 18.7975 43.2498 18.4694 43.0858C17.3053 42.5155 16.8287 41.1092 17.399 39.9452C20.36 33.9295 25.7272 29.367 32.1412 27.4295C33.3834 27.0545 34.6881 27.7577 35.0631 28.992C35.4381 30.2342 34.735 31.5389 33.5006 31.9139C28.3287 33.4842 23.9928 37.1639 21.61 42.0155C21.2037 42.8436 20.3678 43.328 19.5006 43.328Z" fill="#464C54"/>
<path d="M35.1562 55.4688C38.608 55.4688 41.4062 51.971 41.4062 47.6562C41.4062 43.3415 38.608 39.8438 35.1562 39.8438C31.7045 39.8438 28.9062 43.3415 28.9062 47.6562C28.9062 51.971 31.7045 55.4688 35.1562 55.4688Z" fill="#464C54"/>
<path d="M64.8438 55.4688C68.2955 55.4688 71.0938 51.971 71.0938 47.6562C71.0938 43.3415 68.2955 39.8438 64.8438 39.8438C61.392 39.8438 58.5938 43.3415 58.5938 47.6562C58.5938 51.971 61.392 55.4688 64.8438 55.4688Z" fill="#464C54"/>
<path d="M79.2262 73.6328L69.5309 59.375L59.8356 73.6328C56.6715 78.2891 57.2653 84.5312 61.2418 88.5078C65.82 93.0859 73.2418 93.0859 77.8122 88.5078C81.7965 84.5312 82.3825 78.2891 79.2262 73.6328Z" fill="#00A6E4"/>
<path d="M80.4994 43.3281C79.6322 43.3281 78.804 42.8437 78.3978 42.0156C76.015 37.1641 71.679 33.4844 66.5072 31.9141C65.2728 31.5391 64.5697 30.2266 64.9447 28.9922C65.3197 27.75 66.6244 27.0547 67.8665 27.4297C74.2806 29.375 79.6478 33.9375 82.6087 39.9453C83.179 41.1094 82.7025 42.5078 81.5384 43.0859C81.1947 43.25 80.8431 43.3281 80.4994 43.3281Z" fill="#464C54"/>
</svg>
