<svg width="100" height="104" viewBox="0 0 100 104" fill="none" xmlns="http://www.w3.org/2000/svg">
<g clip-path="url(#clip0_191_6360)">
<path d="M50 0.93457C22.386 0.93457 0 23.8721 0 52.1641C0 80.4581 22.386 103.394 50 103.394C77.613 103.394 100 80.4581 100 52.1641C100 23.8721 77.613 0.93457 50 0.93457Z" fill="#EDEDED"/>
<path d="M19.0039 31.6567H81.0249V82.8617H19.0659L19.0039 31.6567Z" fill="#D07C40"/>
<path d="M84.0026 43.9826C84.0026 44.0082 16.0586 43.9621 15.9946 43.9826V82.834C15.9956 82.8381 15.9876 85.9067 15.9766 89.6916C24.9016 98.1885 36.8546 103.393 49.9996 103.393C63.1216 103.393 75.0566 98.208 83.9766 89.7377C83.9456 85.9375 83.9196 82.8494 83.9216 82.8483C83.9216 66.7336 84.0026 43.9826 84.0026 43.9826ZM75.0206 35.7797V42.461L81.0246 41.2623V31.6567L75.0206 35.7797ZM25.0096 41.9416V35.7797L19.0036 31.6567V41.8862L25.0096 41.9416Z" fill="#EFC75E"/>
<path d="M25.0091 43.9827V35.7798L15.9941 43.9827H25.0091ZM75.0201 35.7798V43.9827H84.0011L75.0201 35.7798Z" fill="#DBA250"/>
<path d="M71.0637 59.9082C71.0637 59.0496 70.3397 58.2832 69.5017 58.2832C68.6637 58.2832 67.8527 59.0496 67.8527 59.9082C67.8487 70.316 60.2117 78.7535 50.0527 78.7535C39.8927 78.7535 32.0567 70.318 32.0517 59.9082C32.0517 59.0496 31.3417 58.2832 30.5027 58.2832C29.6637 58.2832 28.8457 59.0496 28.8457 59.9082C28.8457 72.1377 38.1207 82.0475 50.0547 82.0475C61.9877 82.0475 71.0637 72.1357 71.0637 59.9082Z" fill="#CBA950"/>
<path d="M30.4722 55.2256C29.1022 55.2256 27.9922 56.3629 27.9922 57.7666C27.9922 59.1692 29.1022 60.3065 30.4722 60.3065C31.8422 60.3065 32.9842 59.1692 32.9842 57.7666C32.9832 56.3649 31.8412 55.2256 30.4722 55.2256ZM69.4732 55.2256C68.1022 55.2256 66.9932 56.3629 66.9932 57.7666C66.9932 59.1692 68.1022 60.3065 69.4732 60.3065C70.8422 60.3065 71.9852 59.1692 71.9852 57.7666C71.9822 56.3649 70.8412 55.2256 69.4732 55.2256Z" fill="#D07C40"/>
<path d="M71.0637 58.8833C71.0637 58.0247 70.3397 57.2583 69.5017 57.2583C68.6637 57.2583 67.8527 58.0247 67.8527 58.8833C67.8487 69.2911 60.2117 77.7286 50.0527 77.7286C39.8927 77.7286 32.0567 69.2931 32.0517 58.8833C32.0517 58.0247 31.3417 57.2583 30.5027 57.2583C29.6637 57.2583 28.8457 58.0247 28.8457 58.8833C28.8457 71.1128 38.1207 81.0226 50.0547 81.0226C61.9877 81.0226 71.0637 71.1108 71.0637 58.8833Z" fill="white"/>
</g>
<defs>
<clipPath id="clip0_191_6360">
<rect width="100" height="102.459" fill="white" transform="translate(0 0.93457)"/>
</clipPath>
</defs>
</svg>
