<svg width="15" height="16" viewBox="0 0 15 16" fill="none" xmlns="http://www.w3.org/2000/svg">
<path d="M12.5 2.00781C13.5938 2.00781 14.5 2.91406 14.5 4.00781V14.0078C14.5 15.1328 13.5938 16.0078 12.5 16.0078H2.5C1.375 16.0078 0.5 15.1328 0.5 14.0078V4.00781C0.5 2.91406 1.375 2.00781 2.5 2.00781H3.75V0.757812C3.75 0.351562 4.0625 0.0078125 4.5 0.0078125C4.90625 0.0078125 5.25 0.351562 5.25 0.757812V2.00781H9.75V0.757812C9.75 0.351562 10.0625 0.0078125 10.5 0.0078125C10.9062 0.0078125 11.25 0.351562 11.25 0.757812V2.00781H12.5ZM12.5 14.5078C12.75 14.5078 13 14.2891 13 14.0078V6.00781H2V14.0078C2 14.2891 2.21875 14.5078 2.5 14.5078H12.5Z" fill="#333333"/>
</svg>
