<svg width="77" height="30" viewBox="0 0 77 30" fill="none" xmlns="http://www.w3.org/2000/svg">
<path d="M3.47736 0H20.0789L19.4924 1.61922H14.2593L11.7781 8.44092H6.13901L8.62021 1.61922H2.89089L3.47736 0Z" fill="white"/>
<path d="M36.3045 0H21.1315L18.0639 8.44092H23.8684L26.3346 1.61922H30.6654C31.1316 1.61922 31.312 1.94906 31.2067 2.29389C31.1015 2.63872 30.9511 3.05852 30.8458 3.3134C30.6955 3.65823 30.3496 3.9281 29.8383 3.9281H25.7782L29.312 8.42592H36.0037L32.9962 5.05256H34.8007C35.6428 5.05256 36.124 4.60277 36.3496 4.04804C36.6052 3.41835 37.1616 1.8591 37.3421 1.33435C37.6428 0.509753 37.1616 0 36.3045 0Z" fill="white"/>
<path d="M53.8534 1.61922L54.4398 0H39.1616L37.0564 5.7872C36.921 6.16202 36.8909 6.58182 37.1767 6.89666C37.2086 6.93385 37.3161 7.05387 37.4476 7.20068L37.449 7.20221L37.4493 7.20251C37.6887 7.46982 38.0068 7.82492 38.094 7.93116C38.3346 8.20103 38.6353 8.42592 39.1315 8.42592H51.3571L51.9436 6.8217H43.3872C42.8609 6.8217 42.6203 6.43189 42.7556 6.04208L43.1466 4.97759H52.6052L53.1917 3.35837H43.7331L44.3797 1.60422H53.8534V1.61922Z" fill="white"/>
<path d="M61.7029 0H55.748L52.6803 8.44092H58.6502L61.7029 0Z" fill="white"/>
<path d="M64.1541 8.44092L60.6203 3.9281L66.9511 0H73.9436L67.0864 3.97308L71.0413 8.44092H64.1541Z" fill="white"/>
<path d="M41.0865 12.909H35.688L0.5 13.6136V13.7936L35.688 14.5582H41.1015L76.2895 13.7936V13.6136L41.0865 12.909Z" fill="white"/>
<path d="M56.6354 18.7409C56.4549 19.0108 56.1392 19.0258 55.1316 19.0258L45.3722 19.0108V19.2207C46.1692 19.2657 46.5301 19.5056 46.5301 20.0303C46.5301 20.3751 46.3196 20.9599 46.079 21.5596C44.8159 24.5731 43.8234 26.6421 43.8234 26.6421C43.8234 26.6421 42.3948 23.8235 41.2971 21.1398C41.1016 20.675 40.9963 20.2852 40.9963 20.0303C40.9963 19.4606 41.5226 19.2657 41.9737 19.2207V19.0108H37.1016V19.2207C37.1016 19.2207 37.8234 19.2357 38.4098 19.5505C38.876 19.8054 39.3422 20.675 39.658 21.3497C40.1843 22.4591 42.0038 26.4622 42.5752 27.8565C42.9361 28.7561 43.0865 29.1159 43.0865 29.1159L43.4625 29.0559C43.4625 29.0559 45.688 24.0334 46.9211 21.5596C47.5828 20.2402 47.9286 19.8054 48.4549 19.4906C48.5903 19.4156 48.7407 19.3556 48.891 19.3107H48.9211C49.0414 19.2807 49.1617 19.2657 49.282 19.2657C50.1241 19.2657 50.8008 19.9404 50.8008 20.7799C50.8008 20.8232 50.8043 20.8698 50.8079 20.9183C50.8118 20.9707 50.8159 21.0253 50.8159 21.0798C50.8512 22.1005 50.8496 22.6162 50.8473 23.4029C50.8466 23.6216 50.8459 23.8612 50.8459 24.1383C50.8459 25.3527 50.8158 26.4322 50.7707 27.0619C50.7256 27.6616 50.6805 28.1564 50.3196 28.4412C49.9587 28.7261 48.9211 28.7711 48.9211 28.7711V28.981H56.7407L57.4925 26.7171L57.3121 26.6421C57.3121 26.6421 57.0264 27.3168 56.6655 27.6316C56.0189 28.1864 55.0564 28.3963 54.079 28.3963C52.6354 28.3963 52.47 27.9915 52.4098 26.912C52.3558 26.0228 52.3624 24.6978 52.3643 24.3185L52.3646 24.2703C52.3647 24.252 52.3647 24.2378 52.3647 24.2283L54.8309 24.2733C54.9963 24.2733 55.3572 24.3032 55.5377 24.4981C55.6128 24.5731 55.658 24.6631 55.7031 24.753C55.7933 25.0079 55.8534 25.2478 55.8685 25.3527C55.8835 25.3827 55.8835 25.3977 55.8835 25.4127H56.064V22.3692H55.8835C55.8789 22.3922 55.8744 22.4149 55.8699 22.4373C55.8021 22.7789 55.7494 23.0445 55.5377 23.2837C55.3422 23.4786 54.9963 23.5086 54.8309 23.5086L52.3647 23.5536C52.3647 22.3692 52.3948 20.9149 52.4399 19.6705C52.4399 19.6705 52.891 19.6555 53.4324 19.6555C53.8534 19.6555 54.3346 19.6705 54.6805 19.6855C55.2369 19.7155 55.7482 19.7454 56.079 19.9853C56.4249 20.2402 56.47 21.0648 56.47 21.0648H56.6504L56.7858 18.7409H56.6354Z" fill="white"/>
<path fill-rule="evenodd" clip-rule="evenodd" d="M28.9512 21.4998C28.9512 22.9091 27.7331 23.6138 26.9812 24.0036C34.9136 33.432 39.6417 27.0471 39.804 26.828C39.8066 26.8244 39.8081 26.8225 39.8083 26.8223L40.0038 26.9872C40.0038 26.9872 34.6203 35.1732 25.4324 24.5584L24.0339 24.7982C24.0339 24.7982 24.0639 26.5074 24.094 26.9272L24.0995 27.0187C24.1415 27.722 24.1823 28.4046 24.8309 28.5914C25.282 28.7263 25.7933 28.7563 25.7933 28.7563V28.9662H20.8459V28.7563C20.8459 28.7563 21.6579 28.7413 22.0188 28.4565C22.3805 28.179 22.4205 27.6321 22.4602 27.0888L22.4602 27.0885L22.4602 27.0883C22.4634 27.0445 22.4666 27.0008 22.47 26.9572C22.5151 26.3725 22.5301 24.9931 22.5301 24.1086C22.5301 23.0141 22.5 21.7247 22.47 21.155C22.4248 20.1355 22.3346 19.7907 22.0038 19.5358C21.6429 19.2509 20.7557 19.161 20.7557 19.161V18.9511C20.7557 18.9511 23.4324 18.9061 24.7256 18.9061C27.1015 18.9061 28.9512 19.7007 28.9512 21.4998ZM24.0489 24.1535L25.8083 23.8087C26.2294 23.6588 27.2068 23.269 27.2068 21.8297C27.2068 19.9406 25.3572 19.4158 24.079 19.4158C24.0489 20.7352 24.0489 24.1535 24.0489 24.1535Z" fill="white"/>
<path d="M61.7181 27.7817C61.6388 26.1344 61.6408 25.0431 61.6424 24.1515C61.6427 24.0287 61.6429 23.9097 61.6429 23.7936C61.6429 23.044 61.6579 21.9795 61.7181 20.87C61.7482 20.1953 61.8083 19.7006 62.1692 19.5057C62.5903 19.2808 63.4324 19.2208 63.4324 19.2208V19.0109H58.485V19.2208C58.485 19.2208 59.2519 19.2508 59.6579 19.5057C59.9587 19.7006 60.0339 20.1054 60.0489 20.885C60.079 22.2643 60.079 23.2539 60.079 23.8536C60.079 23.9882 60.0794 24.1341 60.0797 24.2878C60.0819 25.1099 60.0845 26.159 60.0339 26.9421C59.9737 27.9766 59.8233 28.2315 59.5527 28.4264C59.1767 28.6962 58.3497 28.7412 58.3497 28.7412V28.9511H59.9737C60.5451 28.9661 61.8233 29.116 62.6354 29.3259C63.0865 29.4309 63.5527 29.4908 64.0489 29.4908C66.3797 29.4908 67.6278 28.2614 68.5451 26.9721L68.3497 26.8071C66.1391 30.0906 61.7181 27.7817 61.7181 27.7817Z" fill="white"/>
<path fill-rule="evenodd" clip-rule="evenodd" d="M31.5226 24.1984C31.2369 24.9181 30.9662 25.2629 30.7406 25.4278C30.4248 25.6377 29.9286 25.6527 29.9286 25.6527V25.8026H33.0113V25.6527C32.9882 25.6494 32.9596 25.6467 32.9271 25.6435L32.9267 25.6435L32.9265 25.6435L32.9262 25.6435C32.6623 25.6181 32.1391 25.5679 32.1391 25.008C32.1391 24.8965 32.1911 24.7073 32.2347 24.5487L32.2444 24.5133C32.3647 24.0785 32.6504 23.3888 32.7256 23.2089H35.0865C35.1316 23.3288 35.267 23.6887 35.4775 24.3034C35.5677 24.5432 35.6429 24.8131 35.6429 25.038C35.6429 25.5434 35.0631 25.6123 34.7222 25.6528C34.6788 25.6579 34.6393 25.6626 34.6053 25.6677V25.8176H38.3797V25.6677C37.9587 25.6377 37.297 25.4878 36.9211 24.4983C36.5321 23.4899 35.9952 22.0637 35.6019 21.019L35.6014 21.0176L35.6011 21.0169C35.4626 20.649 35.342 20.3285 35.2519 20.0904C35.2218 20.0154 35.2068 19.9405 35.2068 19.8505C35.2068 19.5207 35.4775 19.2358 35.8233 19.2358H35.8685V19.2208L35.8083 19.0109H32.0038V19.2208C32.0038 19.2208 33.5226 19.1159 33.1767 19.9705C32.891 20.825 32.0188 22.999 31.5226 24.1984ZM33.8985 20.0454L34.891 22.5642H32.9211C33.297 21.5447 33.8985 20.0454 33.8985 20.0454Z" fill="white"/>
<path d="M19.297 18.936L20.0488 21.2898L19.8834 21.3648C19.8834 21.3648 19.5977 20.6751 19.2368 20.3603C18.5902 19.7905 18.1691 19.5806 17.1917 19.5806C15.7782 19.5806 15.7331 19.9705 15.6729 21.005V27.077C15.6879 27.8566 15.7631 28.2465 16.0639 28.4563C16.4549 28.7112 17.2368 28.7412 17.2368 28.7412V28.9661H12.2293V28.7412C12.2293 28.7412 13.0714 28.6812 13.4925 28.4563C13.8534 28.2465 13.9135 27.7667 13.9436 27.092V21.0199C13.8834 19.9705 13.8534 19.5806 12.4248 19.5806C11.4624 19.5806 11.0263 19.8055 10.3797 20.3603C10.0188 20.6751 9.73305 21.3648 9.73305 21.3648L9.56764 21.2898L10.3195 18.936H19.297Z" fill="white"/>
</svg>
