<svg width="103" height="40" viewBox="0 0 103 40" fill="none" xmlns="http://www.w3.org/2000/svg">
<path d="M4.96981 0H27.1051L26.3232 2.15896H19.3457L16.0375 11.2546H8.51868L11.827 2.15896H4.18785L4.96981 0Z" fill="white"/>
<path d="M48.7393 0H28.5087L24.4185 11.2546H32.1579L35.4461 2.15896H41.2205C41.8421 2.15896 42.0827 2.59874 41.9423 3.05852C41.802 3.5183 41.6015 4.07803 41.4611 4.41786C41.2606 4.87764 40.7995 5.23747 40.1178 5.23747H34.7042L39.416 11.2346H48.3383L44.3283 6.73674H46.7343C47.8571 6.73674 48.4987 6.13703 48.7995 5.39739C49.1403 4.55779 49.8822 2.4788 50.1228 1.77914C50.5238 0.679671 49.8822 0 48.7393 0Z" fill="white"/>
<path d="M72.1378 2.15896L72.9198 0H52.5488L49.7418 7.71627C49.5614 8.21602 49.5213 8.77575 49.9022 9.19555C49.9448 9.24513 50.0882 9.40516 50.2635 9.60091L50.2653 9.60295L50.2657 9.60335C50.5849 9.95976 51.009 10.4332 51.1253 10.5749C51.4461 10.9347 51.8471 11.2346 52.5087 11.2346H68.8095L69.5914 9.0956H58.1829C57.4812 9.0956 57.1604 8.57585 57.3408 8.0561L57.8621 6.63679H70.4736L71.2556 4.47783H58.6441L59.5062 2.13896H72.1378V2.15896Z" fill="white"/>
<path d="M82.6038 0H74.664L70.5737 11.2546H78.5336L82.6038 0Z" fill="white"/>
<path d="M85.8721 11.2546L81.1604 5.23747L89.6015 0H98.9248L89.7819 5.29744L95.0551 11.2546H85.8721Z" fill="white"/>
<path d="M55.1153 17.212H47.9173L1 18.1515V18.3914L47.9173 19.4109H55.1353L102.053 18.3914V18.1515L55.1153 17.212Z" fill="white"/>
<path d="M75.8472 24.9879C75.6066 25.3477 75.1855 25.3677 73.8422 25.3677L60.8297 25.3477V25.6276C61.8923 25.6876 62.3735 26.0074 62.3735 26.7071C62.3735 27.1669 62.0928 27.9465 61.772 28.7461C60.0878 32.7641 58.7645 35.5228 58.7645 35.5228C58.7645 35.5228 56.8597 31.7646 55.3961 28.1864C55.1354 27.5667 54.9951 27.0469 54.9951 26.7071C54.9951 25.9474 55.6968 25.6876 56.2983 25.6276V25.3477H49.8021V25.6276C49.8021 25.6276 50.7645 25.6476 51.5464 26.0674C52.168 26.4072 52.7896 27.5667 53.2106 28.4662C53.9124 29.9455 56.3384 35.2829 57.1003 37.142C57.5815 38.3414 57.782 38.8212 57.782 38.8212L58.2833 38.7413C58.2833 38.7413 61.2507 32.0445 62.8948 28.7461C63.777 26.9869 64.2382 26.4072 64.9399 25.9874C65.1204 25.8875 65.3209 25.8075 65.5214 25.7475H65.5615C65.7219 25.7076 65.8823 25.6876 66.0427 25.6876C67.1655 25.6876 68.0677 26.5871 68.0677 27.7066C68.0677 27.7642 68.0724 27.8264 68.0772 27.8911C68.0824 27.9609 68.0878 28.0337 68.0878 28.1064C68.1349 29.4673 68.1328 30.155 68.1297 31.2039C68.1288 31.4954 68.1279 31.8149 68.1279 32.1844C68.1279 33.8036 68.0878 35.2429 68.0276 36.0825C67.9675 36.8822 67.9073 37.5418 67.4261 37.9216C66.9449 38.3015 65.5615 38.3614 65.5615 38.3614V38.6413H75.9875L76.9901 35.6228L76.7495 35.5228C76.7495 35.5228 76.3685 36.4224 75.8873 36.8422C75.0251 37.5818 73.7419 37.8617 72.4387 37.8617C70.5139 37.8617 70.2933 37.3219 70.2131 35.8826C70.1411 34.6971 70.1499 32.9305 70.1525 32.4247L70.1528 32.3605C70.1529 32.336 70.153 32.3171 70.153 32.3044L73.4412 32.3643C73.6617 32.3643 74.1429 32.4043 74.3835 32.6642C74.4838 32.7641 74.5439 32.8841 74.6041 33.004C74.7244 33.3439 74.8046 33.6637 74.8246 33.8036C74.8447 33.8436 74.8447 33.8636 74.8447 33.8836H75.0853V29.8256H74.8447C74.8385 29.8563 74.8325 29.8866 74.8266 29.9164C74.7361 30.3719 74.6658 30.726 74.3835 31.045C74.1229 31.3049 73.6617 31.3448 73.4412 31.3448L70.153 31.4048C70.153 29.8256 70.1931 27.8865 70.2532 26.2273C70.2532 26.2273 70.8547 26.2073 71.5765 26.2073C72.1379 26.2073 72.7795 26.2273 73.2407 26.2473C73.9825 26.2873 74.6642 26.3273 75.1053 26.6471C75.5665 26.9869 75.6266 28.0864 75.6266 28.0864H75.8672L76.0477 24.9879H75.8472Z" fill="white"/>
<path fill-rule="evenodd" clip-rule="evenodd" d="M38.9349 28.6664C38.9349 30.5455 37.3108 31.4851 36.3083 32.0048C46.8847 44.5761 53.1889 36.0629 53.4054 35.7706C53.4088 35.7659 53.4108 35.7633 53.4111 35.763L53.6717 35.9829C53.6717 35.9829 46.4938 46.8976 34.2431 32.7445L32.3785 33.0643C32.3785 33.0643 32.4186 35.3432 32.4587 35.9029L32.466 36.025C32.522 36.9626 32.5764 37.8728 33.4411 38.1219C34.0426 38.3018 34.7243 38.3418 34.7243 38.3418V38.6216H28.1279V38.3418C28.1279 38.3418 29.2106 38.3218 29.6918 37.942C30.1741 37.5721 30.2273 36.8429 30.2802 36.1184L30.2803 36.118L30.2803 36.1177C30.2845 36.0593 30.2888 36.001 30.2933 35.9429C30.3534 35.1633 30.3735 33.3242 30.3735 32.1448C30.3735 30.6855 30.3334 28.9663 30.2933 28.2067C30.2331 26.8473 30.1128 26.3875 29.6717 26.0477C29.1905 25.6679 28.0076 25.548 28.0076 25.548V25.2681C28.0076 25.2681 31.5765 25.2081 33.3008 25.2081C36.4687 25.2081 38.9349 26.2676 38.9349 28.6664ZM32.3985 32.2047L34.7444 31.745C35.3058 31.545 36.6091 31.0253 36.6091 29.1062C36.6091 26.5874 34.1429 25.8878 32.4386 25.8878C32.3985 27.6469 32.3985 32.2047 32.3985 32.2047Z" fill="white"/>
<path d="M82.6241 37.0422C82.5184 34.8459 82.521 33.3908 82.5232 32.202C82.5236 32.0383 82.5238 31.8796 82.5238 31.7248C82.5238 30.7253 82.5439 29.306 82.6241 27.8267C82.6642 26.9271 82.7444 26.2674 83.2256 26.0076C83.787 25.7077 84.9098 25.6278 84.9098 25.6278V25.3479H78.3133V25.6278C78.3133 25.6278 79.3359 25.6677 79.8772 26.0076C80.2782 26.2674 80.3785 26.8072 80.3985 27.8467C80.4386 29.6858 80.4386 31.0052 80.4386 31.8048C80.4386 31.9843 80.4391 32.1787 80.4397 32.3838C80.4425 33.4799 80.446 34.8787 80.3785 35.9228C80.2983 37.3021 80.0978 37.6419 79.7369 37.9018C79.2356 38.2616 78.1329 38.3216 78.1329 38.3216V38.6015H80.2983C81.0602 38.6215 82.7645 38.8214 83.8472 39.1012C84.4487 39.2412 85.0702 39.3211 85.7319 39.3211C88.8396 39.3211 90.5038 37.6819 91.7269 35.9628L91.4662 35.7429C88.5188 40.1207 82.6241 37.0422 82.6241 37.0422Z" fill="white"/>
<path fill-rule="evenodd" clip-rule="evenodd" d="M42.3634 32.2645C41.9825 33.2241 41.6216 33.6839 41.3208 33.9038C40.8998 34.1836 40.2381 34.2036 40.2381 34.2036V34.4035H44.3484V34.2036C44.3176 34.1992 44.2794 34.1955 44.2361 34.1914L44.2356 34.1913L44.2354 34.1913L44.2349 34.1913C43.883 34.1575 43.1855 34.0906 43.1855 33.344C43.1855 33.1954 43.2548 32.943 43.3129 32.7316L43.3259 32.6843C43.4863 32.1046 43.8672 31.1851 43.9675 30.9452H47.1153C47.1755 31.1051 47.3559 31.5849 47.6366 32.4045C47.7569 32.7243 47.8572 33.0841 47.8572 33.384C47.8572 34.0578 47.0842 34.1497 46.6296 34.2037C46.5718 34.2106 46.519 34.2168 46.4737 34.2236V34.4235H51.5063V34.2236C50.9449 34.1836 50.0627 33.9837 49.5614 32.6643C49.0428 31.3198 48.3269 29.4183 47.8025 28.0253L47.8018 28.0234L47.8015 28.0225C47.6168 27.532 47.456 27.1047 47.3359 26.7872C47.2958 26.6872 47.2757 26.5873 47.2757 26.4673C47.2757 26.0276 47.6366 25.6477 48.0978 25.6477H48.1579V25.6278L48.0777 25.3479H43.0051V25.6278C43.0051 25.6278 45.0301 25.4878 44.569 26.6273C44.188 27.7667 43.0251 30.6653 42.3634 32.2645ZM45.5314 26.7272L46.8547 30.0856H44.2281C44.7294 28.7263 45.5314 26.7272 45.5314 26.7272Z" fill="white"/>
<path d="M26.0626 25.2479L27.0651 28.3864L26.8446 28.4864C26.8446 28.4864 26.4636 27.5668 25.9824 27.147C25.1203 26.3874 24.5589 26.1075 23.2556 26.1075C21.3709 26.1075 21.3107 26.6273 21.2305 28.0066V36.1027C21.2506 37.1422 21.3508 37.6619 21.7518 37.9418C22.2731 38.2816 23.3158 38.3216 23.3158 38.3216V38.6215H16.6391V38.3216C16.6391 38.3216 17.7619 38.2416 18.3233 37.9418C18.8045 37.6619 18.8847 37.0222 18.9248 36.1227V28.0266C18.8446 26.6273 18.8045 26.1075 16.8997 26.1075C15.6165 26.1075 15.035 26.4074 14.1729 27.147C13.6917 27.5668 13.3107 28.4864 13.3107 28.4864L13.0902 28.3864L14.0927 25.2479H26.0626Z" fill="white"/>
</svg>
