<svg width="18" height="15" viewBox="0 0 18 15" fill="none" xmlns="http://www.w3.org/2000/svg">
<path d="M16.8125 12.2422C17.3125 13.1172 16.6875 14.2109 15.6562 14.2109H2.3125C1.28125 14.2109 0.65625 13.1172 1.15625 12.2422L7.8125 0.867188C8.34375 -0.0078125 9.625 -0.0078125 10.125 0.867188L16.8125 12.2422ZM8.25 4.46094V8.46094C8.25 8.89844 8.5625 9.21094 9 9.21094C9.40625 9.21094 9.75 8.89844 9.75 8.46094V4.46094C9.75 4.05469 9.40625 3.71094 9 3.71094C8.5625 3.71094 8.25 4.05469 8.25 4.46094ZM9 12.2109C9.53125 12.2109 9.96875 11.7734 9.96875 11.2422C9.96875 10.7109 9.53125 10.2734 9 10.2734C8.4375 10.2734 8 10.7109 8 11.2422C8 11.7734 8.4375 12.2109 9 12.2109Z" fill="#28AAE1"/>
</svg>
