<svg width="26" height="25" viewBox="0 0 26 25" fill="none" xmlns="http://www.w3.org/2000/svg">
<path d="M13 0.0625C19.7031 0.0625 25.1875 5.54688 25.1875 12.25C25.1875 19.0039 19.7031 24.4375 13 24.4375C6.24609 24.4375 0.8125 19.0039 0.8125 12.25C0.8125 5.54688 6.24609 0.0625 13 0.0625ZM18.8398 10.0156C19.3984 9.45703 19.3984 8.59375 18.8398 8.03516C18.2812 7.47656 17.418 7.47656 16.8594 8.03516L11.375 13.5195L9.08984 11.2852C8.53125 10.7266 7.66797 10.7266 7.10938 11.2852C6.55078 11.8438 6.55078 12.707 7.10938 13.2656L10.3594 16.5156C10.6133 16.8203 10.9688 16.9219 11.375 16.9219C11.7305 16.9219 12.0859 16.8203 12.3398 16.5156L18.8398 10.0156Z" fill="#28AAE1"/>
</svg>
