<?xml version="1.0" standalone="no"?>
<!DOCTYPE svg PUBLIC "-//W3C//DTD SVG 20010904//EN"
 "http://www.w3.org/TR/2001/REC-SVG-20010904/DTD/svg10.dtd">
<svg version="1.0" xmlns="http://www.w3.org/2000/svg"
 width="700.000000pt" height="700.000000pt" viewBox="0 0 700.000000 700.000000"
 preserveAspectRatio="xMidYMid meet">
<metadata>
Created by potrace 1.14, written by Peter Selinger 2001-2017
</metadata>
<g transform="translate(0.000000,700.000000) scale(0.100000,-0.100000)"
fill="#000000" stroke="none">
<path d="M0 3500 l0 -3500 3500 0 3500 0 0 3500 0 3500 -3500 0 -3500 0 0
-3500z m3887 570 c844 -153 2599 -502 2616 -519 15 -15 16 -116 2 -130 -15
-15 -1563 -348 -2325 -501 -438 -88 -621 -120 -685 -120 -50 0 -319 49 -705
129 -817 168 -2275 483 -2288 493 -14 12 -17 124 -3 133 23 14 1648 338 2351
469 462 87 570 104 642 105 41 1 190 -21 395 -59z"/>
</g>
</svg>
