<svg width="22" height="23" viewBox="0 0 22 23" fill="none" xmlns="http://www.w3.org/2000/svg">
<path d="M20.0625 4.35938C20.8359 4.74609 21.2656 5.34766 21.3086 6.20703C21.2227 9.90234 20.4922 12.9531 19.1172 15.4023C17.7422 17.8945 16.2383 19.6992 14.6484 20.9023C13.0156 22.1484 11.8125 22.75 10.9961 22.75C10.1797 22.75 8.97656 22.1484 7.34375 20.9453C5.71094 19.7422 4.25 17.8945 2.875 15.4453C1.5 12.9961 0.769531 9.90234 0.683594 6.20703C0.683594 5.34766 1.11328 4.74609 1.97266 4.35938L10.2227 0.921875C10.4805 0.835938 10.7383 0.75 10.9961 0.75C11.2539 0.75 11.5547 0.835938 11.8125 0.921875L20.0625 4.35938ZM15.1211 9.34375C15.1211 9.17188 15.0352 8.95703 14.9062 8.69922C14.7344 8.48438 14.4766 8.35547 14.0898 8.26953C13.7461 8.26953 13.4883 8.39844 13.3164 8.61328L9.92188 12.6094L8.63281 11.3203C8.41797 11.1484 8.16016 11.0195 7.90234 11.0195C7.25781 11.1055 6.91406 11.4492 6.87109 12.0508C6.87109 12.3945 6.95703 12.6094 7.17188 12.7812L9.23438 14.8438C9.40625 15.0586 9.66406 15.1445 9.96484 15.1445C10.1367 15.2305 10.3945 15.1016 10.7383 14.8438L14.8633 10.0312C15.0352 9.85938 15.1211 9.60156 15.1211 9.34375Z" fill="#28AAE1"/>
</svg>
