<svg width="24" height="24" viewBox="0 0 24 24" fill="none" xmlns="http://www.w3.org/2000/svg">
<path d="M9.5 12.5C11.5711 12.5 13.25 10.8211 13.25 8.75C13.25 6.67893 11.5711 5 9.5 5C7.42893 5 5.75 6.67893 5.75 8.75C5.75 10.8211 7.42893 12.5 9.5 12.5ZM12 8.75C12 10.1307 10.8807 11.25 9.5 11.25C8.11929 11.25 7 10.1307 7 8.75C7 7.36929 8.11929 6.25 9.5 6.25C10.8807 6.25 12 7.36929 12 8.75Z" fill="black"/>
<path d="M17 18.75C17 20 15.75 20 15.75 20H3.25C3.25 20 2 20 2 18.75C2 17.5 3.25 13.75 9.5 13.75C15.75 13.75 17 17.5 17 18.75ZM15.75 18.7456C15.7482 18.4372 15.5578 17.5131 14.7099 16.6651C13.8945 15.8498 12.3614 15 9.49999 15C6.6386 15 5.10544 15.8498 4.29012 16.6651C3.44219 17.5131 3.25178 18.4372 3.25 18.7456H15.75Z" fill="black"/>
<path fill-rule="evenodd" clip-rule="evenodd" d="M18.875 8.75C19.2202 8.75 19.5 9.02982 19.5 9.375V11.25H21.375C21.7202 11.25 22 11.5298 22 11.875C22 12.2202 21.7202 12.5 21.375 12.5H19.5V14.375C19.5 14.7202 19.2202 15 18.875 15C18.5298 15 18.25 14.7202 18.25 14.375V12.5H16.375C16.0298 12.5 15.75 12.2202 15.75 11.875C15.75 11.5298 16.0298 11.25 16.375 11.25H18.25V9.375C18.25 9.02982 18.5298 8.75 18.875 8.75Z" fill="black"/>
</svg>
