<svg width="17" height="17" viewBox="0 0 17 17" fill="none" xmlns="http://www.w3.org/2000/svg">
<rect x="0.923767" y="1.16998" width="15" height="15" rx="7.5" stroke="#333333"/>
<path d="M8.17377 10.795C7.97845 10.795 7.84174 10.7364 7.72455 10.6192C7.60736 10.502 7.54877 10.3458 7.54877 10.1505V5.16998C7.54877 4.9942 7.60736 4.83795 7.72455 4.72076C7.84174 4.60358 7.97845 4.54498 8.17377 4.54498C8.34955 4.54498 8.5058 4.60358 8.62299 4.72076C8.74017 4.83795 8.79877 4.9942 8.79877 5.16998V10.1895C8.79877 10.3653 8.74017 10.502 8.62299 10.6192C8.5058 10.7364 8.34955 10.795 8.17377 10.795ZM8.17377 11.7325C8.38861 11.752 8.56439 11.8301 8.72064 11.9669C8.87689 12.1231 8.95502 12.3184 8.95502 12.5137C8.95502 12.7286 8.87689 12.9044 8.72064 13.0606C8.56439 13.2169 8.38861 13.2755 8.17377 13.2755C7.93939 13.2755 7.76361 13.2169 7.62689 13.0606C7.47064 12.9239 7.39252 12.7481 7.39252 12.5137C7.39252 12.2989 7.47064 12.1231 7.62689 11.9669C7.76361 11.8106 7.93939 11.7325 8.17377 11.7325Z" fill="#333333"/>
</svg>
