<svg width="15" height="17" viewBox="0 0 15 17" fill="none" xmlns="http://www.w3.org/2000/svg">
<path d="M2.92377 6.66998V5.16998C2.95502 3.91998 3.39252 2.85748 4.23627 1.98248C5.08002 1.16998 6.14252 0.732483 7.42377 0.669983C8.67377 0.732483 9.73627 1.16998 10.6113 1.98248C11.4238 2.85748 11.8613 3.91998 11.9238 5.16998V6.66998H12.4238C12.9863 6.70123 13.455 6.88873 13.83 7.26373C14.205 7.63873 14.3925 8.10748 14.4238 8.66998V14.67C14.3925 15.2325 14.205 15.7012 13.83 16.0762C13.455 16.4512 12.9863 16.67 12.4238 16.67H2.42377C1.86127 16.67 1.39252 16.4512 1.01752 16.0762C0.642517 15.7012 0.423767 15.2325 0.423767 14.67V8.66998C0.423767 8.10748 0.642517 7.63873 1.01752 7.26373C1.39252 6.88873 1.86127 6.70123 2.42377 6.66998H2.92377ZM4.92377 6.66998H9.92377V5.16998C9.89252 4.48248 9.64252 3.88873 9.20502 3.38873C8.70502 2.95123 8.11127 2.70123 7.42377 2.66998C6.70502 2.70123 6.11127 2.95123 5.64252 3.38873C5.17377 3.88873 4.92377 4.48248 4.92377 5.16998V6.66998Z" fill="#333333"/>
</svg>
