<svg width="24" height="24" viewBox="0 0 24 24" fill="none" xmlns="http://www.w3.org/2000/svg">
<path d="M9.5 12.5C11.5711 12.5 13.25 10.8211 13.25 8.75C13.25 6.67893 11.5711 5 9.5 5C7.42893 5 5.75 6.67893 5.75 8.75C5.75 10.8211 7.42893 12.5 9.5 12.5ZM12 8.75C12 10.1307 10.8807 11.25 9.5 11.25C8.11929 11.25 7 10.1307 7 8.75C7 7.36929 8.11929 6.25 9.5 6.25C10.8807 6.25 12 7.36929 12 8.75Z" fill="#167332"/>
<path d="M17 18.75C17 20 15.75 20 15.75 20H3.25C3.25 20 2 20 2 18.75C2 17.5 3.25 13.75 9.5 13.75C15.75 13.75 17 17.5 17 18.75ZM15.75 18.7456C15.7482 18.4372 15.5578 17.5131 14.7099 16.6651C13.8945 15.8498 12.3614 15 9.49999 15C6.6386 15 5.10544 15.8498 4.29012 16.6651C3.44219 17.5131 3.25178 18.4372 3.25 18.7456H15.75Z" fill="#167332"/>
<path fill-rule="evenodd" clip-rule="evenodd" d="M21.8169 8.93306C22.061 9.17714 22.061 9.57286 21.8169 9.81694L18.0669 13.5669C17.9497 13.6842 17.7908 13.75 17.625 13.75C17.4592 13.75 17.3003 13.6842 17.1831 13.5669L15.3081 11.6919C15.064 11.4479 15.064 11.0521 15.3081 10.8081C15.5521 10.564 15.9479 10.564 16.1919 10.8081L17.625 12.2411L20.9331 8.93306C21.1771 8.68898 21.5729 8.68898 21.8169 8.93306Z" fill="#167332"/>
</svg>
