<svg width="248" height="150" viewBox="0 0 248 150" fill="none" xmlns="http://www.w3.org/2000/svg">
<rect width="248" height="150" fill="black"/>
<path d="M83.5789 58H103.535L102.83 59.9431H96.5393L93.5567 68.1291H86.7783L89.7608 59.9431H82.8739L83.5789 58Z" fill="white"/>
<path d="M123.038 58H104.8L101.113 68.1291H108.09L111.054 59.9431H116.26C116.82 59.9431 117.037 60.3389 116.911 60.7527C116.784 61.1665 116.604 61.6702 116.477 61.9761C116.296 62.3899 115.88 62.7137 115.266 62.7137H110.385L114.633 68.1111H122.677L119.062 64.0631H121.231C122.243 64.0631 122.822 63.5233 123.093 62.8576C123.4 62.102 124.069 60.2309 124.286 59.6012C124.647 58.6117 124.069 58 123.038 58Z" fill="white"/>
<path d="M144.133 59.9431L144.838 58H126.473L123.942 64.9446C123.78 65.3944 123.743 65.8982 124.087 66.276C124.125 66.3206 124.254 66.4646 124.413 66.6408L124.414 66.6426C124.702 66.9634 125.085 67.3899 125.189 67.5174C125.479 67.8412 125.84 68.1111 126.437 68.1111H141.132L141.837 66.186H131.552C130.919 66.186 130.63 65.7183 130.793 65.2505L131.263 63.9731H142.633L143.338 62.03H131.968L132.745 59.9251H144.133V59.9431Z" fill="white"/>
<path d="M153.568 58H146.41L142.723 68.1291H149.899L153.568 58Z" fill="white"/>
<path d="M156.515 68.1291L152.267 62.7137L159.877 58H168.282L160.04 62.7677L164.794 68.1291H156.515Z" fill="white"/>
<path d="M128.787 73.4902H122.297L80 74.3358V74.5517L122.297 75.4692H128.805L171.102 74.5517V74.3358L128.787 73.4902Z" fill="white"/>
<path d="M147.477 80.4883C147.26 80.8122 146.88 80.8302 145.669 80.8302L133.938 80.8122V81.064C134.896 81.118 135.33 81.4059 135.33 82.0356C135.33 82.4494 135.077 83.151 134.788 83.8707C133.269 87.4869 132.076 89.9697 132.076 89.9697C132.076 89.9697 130.359 86.5874 129.04 83.3669C128.805 82.8092 128.678 82.3414 128.678 82.0356C128.678 81.3519 129.311 81.118 129.853 81.064V80.8122H123.997V81.064C123.997 81.064 124.864 81.082 125.569 81.4598C126.129 81.7657 126.69 82.8092 127.069 83.6188C127.702 84.9502 129.889 89.7538 130.576 91.427C131.01 92.5065 131.191 92.9383 131.191 92.9383L131.643 92.8663C131.643 92.8663 134.318 86.8392 135.8 83.8707C136.595 82.2874 137.011 81.7657 137.644 81.3879C137.806 81.2979 137.987 81.226 138.168 81.172H138.204C138.349 81.136 138.493 81.118 138.638 81.118C139.65 81.118 140.464 81.9276 140.464 82.9351C140.464 82.987 140.468 83.043 140.472 83.1012C140.477 83.164 140.482 83.2296 140.482 83.295C140.524 84.5198 140.522 85.1387 140.519 86.0827C140.519 86.3451 140.518 86.6326 140.518 86.9652C140.518 88.4225 140.482 89.7179 140.427 90.4735C140.373 91.1931 140.319 91.7869 139.885 92.1287C139.451 92.4705 138.204 92.5245 138.204 92.5245V92.7764H147.604L148.507 90.0597L148.29 89.9697C148.29 89.9697 147.947 90.7793 147.513 91.1572C146.736 91.8228 145.579 92.0747 144.404 92.0747C142.669 92.0747 142.47 91.5889 142.398 90.2936C142.333 89.2266 142.341 87.6366 142.343 87.1814L142.343 87.1236C142.343 87.1016 142.343 87.0846 142.343 87.0731L145.308 87.1271C145.507 87.1271 145.941 87.1631 146.157 87.397C146.248 87.4869 146.302 87.5949 146.356 87.7028C146.465 88.0087 146.537 88.2965 146.555 88.4225C146.573 88.4585 146.573 88.4765 146.573 88.4944H146.79V84.8422H146.573C146.568 84.8699 146.562 84.8971 146.557 84.924C146.475 85.3339 146.412 85.6526 146.157 85.9397C145.922 86.1736 145.507 86.2096 145.308 86.2096L142.343 86.2635C142.343 84.8422 142.38 83.0971 142.434 81.6038C142.434 81.6038 142.976 81.5858 143.627 81.5858C144.133 81.5858 144.711 81.6038 145.127 81.6218C145.796 81.6578 146.411 81.6937 146.808 81.9816C147.224 82.2874 147.278 83.277 147.278 83.277H147.495L147.658 80.4883H147.477Z" fill="white"/>
<path fill-rule="evenodd" clip-rule="evenodd" d="M114.2 83.8C114.2 85.4912 112.735 86.3368 111.832 86.8045C121.367 98.1187 127.05 90.4568 127.245 90.1937C127.248 90.1895 127.25 90.1872 127.25 90.1869L127.485 90.3848C127.485 90.3848 121.014 100.208 109.97 87.4702L108.289 87.7581C108.289 87.7581 108.325 89.8091 108.361 90.3128L108.368 90.4227C108.418 91.2665 108.467 92.0857 109.247 92.3099C109.789 92.4718 110.404 92.5078 110.404 92.5078V92.7597H104.457V92.5078C104.457 92.5078 105.433 92.4898 105.867 92.148C106.301 91.8151 106.349 91.1588 106.397 90.5068C106.401 90.4543 106.405 90.4011 106.409 90.3488C106.463 89.6472 106.481 87.992 106.481 86.9305C106.481 85.6171 106.445 84.0699 106.409 83.3862C106.355 82.1628 106.246 81.749 105.848 81.4431C105.415 81.1013 104.348 80.9934 104.348 80.9934V80.7415C104.348 80.7415 107.566 80.6875 109.12 80.6875C111.976 80.6875 114.2 81.641 114.2 83.8ZM108.307 86.9845L110.422 86.5707C110.928 86.3907 112.103 85.923 112.103 84.1958C112.103 81.9289 109.879 81.2992 108.343 81.2992C108.307 82.8824 108.307 86.9845 108.307 86.9845Z" fill="white"/>
<path d="M153.587 91.3374C153.491 89.3607 153.494 88.0511 153.496 86.9812C153.496 86.8339 153.496 86.6911 153.496 86.5517C153.496 85.6522 153.514 84.3748 153.587 83.0434C153.623 82.2338 153.695 81.6401 154.129 81.4062C154.635 81.1363 155.647 81.0644 155.647 81.0644V80.8125H149.7V81.0644C149.7 81.0644 150.622 81.1004 151.11 81.4062C151.472 81.6401 151.562 82.1259 151.58 83.0614C151.616 84.7166 151.616 85.904 151.616 86.6237C151.616 86.7853 151.617 86.9603 151.617 87.1448C151.62 88.1313 151.623 89.3902 151.562 90.3299C151.49 91.5713 151.309 91.8771 150.984 92.111C150.532 92.4349 149.538 92.4888 149.538 92.4888V92.7407H151.49C152.177 92.7587 153.713 92.9386 154.689 93.1905C155.232 93.3165 155.792 93.3884 156.388 93.3884C159.19 93.3884 160.69 91.9131 161.793 90.3659L161.558 90.168C158.901 94.1081 153.587 91.3374 153.587 91.3374Z" fill="white"/>
<path fill-rule="evenodd" clip-rule="evenodd" d="M117.29 87.0375C116.947 87.9011 116.622 88.3149 116.35 88.5128C115.971 88.7647 115.374 88.7826 115.374 88.7826V88.9626H119.08V88.7826C119.052 88.7787 119.018 88.7754 118.979 88.7716L118.978 88.7715C118.66 88.7411 118.031 88.6809 118.031 88.009C118.031 87.8752 118.094 87.6481 118.146 87.4578L118.158 87.4153C118.303 86.8936 118.646 86.066 118.736 85.8501H121.574C121.629 85.994 121.791 86.4258 122.044 87.1634C122.153 87.4513 122.243 87.7751 122.243 88.045C122.243 88.6514 121.546 88.7341 121.136 88.7827C121.084 88.7889 121.037 88.7945 120.996 88.8006V88.9805H125.533V88.8006C125.027 88.7647 124.231 88.5847 123.78 87.3973C123.312 86.1872 122.667 84.4759 122.194 83.2222L122.193 83.2205C122.027 82.7791 121.881 82.3936 121.773 82.1079C121.737 82.0179 121.719 81.928 121.719 81.82C121.719 81.4242 122.044 81.0824 122.46 81.0824H122.514V81.0644L122.442 80.8125H117.869V81.0644C117.869 81.0644 119.694 80.9384 119.279 81.9639C118.935 82.9894 117.887 85.5982 117.29 87.0375ZM120.146 82.0539L121.339 85.0764H118.971C119.423 83.853 120.146 82.0539 120.146 82.0539Z" fill="white"/>
<path d="M102.595 80.7227L103.498 83.5474L103.3 83.6373C103.3 83.6373 102.956 82.8097 102.522 82.4319C101.745 81.7482 101.239 81.4964 100.064 81.4964C98.365 81.4964 98.3108 81.9641 98.2384 83.2055V90.492C98.2565 91.4276 98.3469 91.8953 98.7084 92.1472C99.1784 92.4531 100.118 92.489 100.118 92.489V92.7589H94.0991V92.489C94.0991 92.489 95.1113 92.4171 95.6175 92.1472C96.0513 91.8953 96.1236 91.3196 96.1597 90.51V83.2235C96.0874 81.9641 96.0513 81.4964 94.3341 81.4964C93.1772 81.4964 92.653 81.7662 91.8758 82.4319C91.4419 82.8097 91.0985 83.6373 91.0985 83.6373L90.8997 83.5474L91.8035 80.7227H102.595Z" fill="white"/>
</svg>
