<svg width="29" height="30" viewBox="0 0 29 30" fill="none" xmlns="http://www.w3.org/2000/svg">
<rect x="0.5" y="1.25" width="28" height="28" rx="14" stroke="#C6C6C6"/>
<path d="M20.1875 15.5C20.1875 15.9922 19.7773 16.4023 19.3125 16.4023H15.375V20.3398C15.375 20.8047 14.9648 21.1875 14.5 21.1875C14.0078 21.1875 13.625 20.8047 13.625 20.3398V16.4023H9.6875C9.19531 16.4023 8.8125 15.9922 8.8125 15.5C8.8125 15.0352 9.19531 14.6523 9.6875 14.6523H13.625V10.7148C13.625 10.2227 14.0078 9.8125 14.5 9.8125C14.9648 9.8125 15.375 10.2227 15.375 10.7148V14.6523H19.3125C19.7773 14.625 20.1875 15.0352 20.1875 15.5Z" fill="#C6C6C6"/>
</svg>
