<svg width="14" height="15" viewBox="0 0 14 15" fill="none" xmlns="http://www.w3.org/2000/svg">
<path d="M12.3641 3.04688C12.8563 3.29297 13.1298 3.67578 13.1571 4.22266C13.1024 6.57422 12.6376 8.51562 11.7626 10.0742C10.8876 11.6602 9.93054 12.8086 8.91882 13.5742C7.87976 14.3672 7.08679 14.75 6.56726 14.75C6.04773 14.75 5.2821 14.3672 4.27039 13.6016C3.23132 12.8359 2.30164 11.6602 1.42664 10.1016C0.551636 8.54297 0.086792 6.57422 0.0321045 4.22266C0.0321045 3.67578 0.305542 3.29297 0.852417 3.04688L6.10242 0.859375C6.26648 0.804688 6.43054 0.75 6.5946 0.75C6.75867 0.75 6.95007 0.804688 7.11414 0.859375L12.3641 3.04688ZM8.7821 9.03516L7.52429 7.75L8.80945 6.46484C8.91882 6.35547 9.00085 6.19141 9.00085 6C8.94617 5.61719 8.72742 5.39844 8.3446 5.34375C8.1532 5.34375 7.98914 5.42578 7.87976 5.53516L6.5946 6.82031L5.30945 5.53516C5.17273 5.42578 5.00867 5.34375 4.8446 5.34375C4.43445 5.39844 4.2157 5.61719 4.18835 6C4.18835 6.19141 4.24304 6.32812 4.37976 6.4375L5.66492 7.75L4.37976 9.03516C4.24304 9.17188 4.18835 9.33594 4.18835 9.5C4.2157 9.91016 4.43445 10.1289 4.8446 10.1562C5.00867 10.1562 5.17273 10.1016 5.30945 9.96484L6.5946 8.67969L7.9071 9.96484C8.01648 10.1016 8.18054 10.1562 8.37195 10.1562C8.72742 10.1289 8.94617 9.91016 9.00085 9.5C9.00085 9.33594 8.91882 9.17188 8.7821 9.03516Z" fill="#28AAE1"/>
</svg>
