<svg width="17" height="17" viewBox="0 0 17 17" fill="none" xmlns="http://www.w3.org/2000/svg">
<rect x="0.423767" y="0.669983" width="16" height="16" rx="8" fill="#6B9214"/>
<path d="M11.936 6.08075C11.9932 6.13791 12.0386 6.20578 12.0695 6.28048C12.1005 6.35519 12.1165 6.43527 12.1165 6.51614C12.1165 6.59701 12.1005 6.67709 12.0695 6.75179C12.0386 6.8265 11.9932 6.89437 11.936 6.95152L7.62828 11.2592C7.57113 11.3164 7.50326 11.3618 7.42855 11.3928C7.35385 11.4238 7.27377 11.4397 7.1929 11.4397C7.11203 11.4397 7.03195 11.4238 6.95724 11.3928C6.88254 11.3618 6.81467 11.3164 6.75751 11.2592L4.91136 9.41306C4.79589 9.29759 4.73102 9.14098 4.73102 8.97768C4.73102 8.81437 4.79589 8.65776 4.91136 8.54229C5.02683 8.42682 5.18344 8.36195 5.34674 8.36195C5.51005 8.36195 5.66666 8.42682 5.78213 8.54229L7.1929 9.95383L11.0652 6.08075C11.1224 6.02354 11.1902 5.97815 11.2649 5.94718C11.3396 5.91621 11.4197 5.90027 11.5006 5.90027C11.5815 5.90027 11.6615 5.91621 11.7362 5.94718C11.811 5.97815 11.8788 6.02354 11.936 6.08075Z" fill="white"/>
</svg>
